<svg xmlns="http://www.w3.org/2000/svg" version="1.1" xmlns:xlink="http://www.w3.org/1999/xlink" xmlns:svgjs="http://svgjs.dev/svgjs" width="1500" height="1500" viewBox="0 0 1500 1500"><rect width="1500" height="1500" fill="#fffff5"></rect><g transform="matrix(0.6666666666666666,0,0,0.6666666666666666,249.39393939393938,465.4833292509477)"><svg viewBox="0 0 396 225" data-background-color="#fffff5" preserveAspectRatio="xMidYMid meet" height="852" width="1500" xmlns="http://www.w3.org/2000/svg" xmlns:xlink="http://www.w3.org/1999/xlink"><g id="tight-bounds" transform="matrix(1,0,0,1,0.2400000000000091,0.20466711009996175)"><svg viewBox="0 0 395.52 224.59066577980008" height="224.59066577980008" width="395.52"><g><svg viewBox="0 0 395.52 224.59066577980008" height="224.59066577980008" width="395.52"><g transform="matrix(1,0,0,1,0,120.86031123876074)"><svg viewBox="0 0 395.52 103.73035454103935" height="103.73035454103935" width="395.52"><g id="textblocktransform"><svg viewBox="0 0 395.52 103.73035454103935" height="103.73035454103935" width="395.52" id="textblock"><g><svg viewBox="0 0 395.52 103.73035454103935" height="103.73035454103935" width="395.52"><g transform="matrix(1,0,0,1,0,0)"><svg width="395.52" viewBox="3.25 -42.3 205.89 53.99999999999999" height="103.73035454103935" data-palette-color="#091627"><path d="M22.4-28.3L31.1-28.3 31.1 0 22.4 0 22.4-2.25Q20.55-0.8 18.63-0.1 16.7 0.6 14.5 0.6L14.5 0.6Q8.85 0.6 6.05-2.25 3.25-5.1 3.25-11.3L3.25-11.3 3.25-28.3 11.95-28.3 11.95-11.3Q11.95-9.25 12.98-8.18 14-7.1 16.45-7.1L16.45-7.1Q19.35-7.1 22.4-9.5L22.4-9.5 22.4-28.3ZM54.4-29.1Q58.2-29.1 61.12-27.43 64.05-25.75 65.72-22.38 67.4-19 67.4-14.15L67.4-14.15Q67.4-9.25 65.72-5.88 64.05-2.5 61.12-0.83 58.2 0.85 54.4 0.85L54.4 0.85Q50.35 0.85 46.8-1.85L46.8-1.85 46.8 11.7 38.1 11.7 38.1-28.3 46.8-28.3 46.8-26.4Q50.35-29.1 54.4-29.1L54.4-29.1ZM52.5-6.85Q55.4-6.85 56.87-8.7 58.35-10.55 58.35-14.15L58.35-14.15Q58.35-17.7 56.87-19.55 55.4-21.4 52.5-21.4L52.5-21.4Q49.65-21.4 46.8-19.35L46.8-19.35 46.8-8.9Q49.65-6.85 52.5-6.85L52.5-6.85ZM89.25-28.9Q94.9-28.9 97.7-26.05 100.5-23.2 100.5-17L100.5-17 100.5 0 91.8 0 91.8-17Q91.8-19.05 90.77-20.13 89.75-21.2 87.3-21.2L87.3-21.2Q84.4-21.2 81.35-18.8L81.35-18.8 81.35 0 72.65 0 72.65-42.3 81.35-42.3 81.35-26.05Q83.2-27.5 85.12-28.2 87.05-28.9 89.25-28.9L89.25-28.9ZM118.24-28.3Q123.74-28.3 126.62-26.83 129.49-25.35 130.44-22.9 131.39-20.45 131.39-16.65L131.39-16.65 131.39 0 122.69 0 122.69-2.3Q120.94-0.7 119.24-0.03 117.54 0.65 115.49 0.65L115.49 0.65Q110.69 0.65 107.97-1.88 105.24-4.4 105.24-8.9L105.24-8.9Q105.24-13.45 108.02-15.9 110.79-18.35 115.74-18.35L115.74-18.35Q119.84-18.35 122.69-16.85L122.69-16.85Q122.64-18.25 122.27-19.07 121.89-19.9 120.77-20.35 119.64-20.8 117.49-20.8L117.49-20.8 111.79-20.8 111.79-28.3 118.24-28.3ZM117.34-6.05Q119.89-6.05 122.69-8.35L122.69-8.35 122.69-11Q120.29-12.15 117.84-12.15L117.84-12.15Q116.04-12.15 115.04-11.38 114.04-10.6 114.04-9L114.04-9Q114.04-7.35 114.89-6.7 115.74-6.05 117.34-6.05L117.34-6.05ZM149.14-28.3Q154.64-28.3 157.52-26.83 160.39-25.35 161.34-22.9 162.29-20.45 162.29-16.65L162.29-16.65 162.29 0 153.59 0 153.59-2.3Q151.84-0.7 150.14-0.03 148.44 0.65 146.39 0.65L146.39 0.65Q141.59 0.65 138.87-1.88 136.14-4.4 136.14-8.9L136.14-8.9Q136.14-13.45 138.92-15.9 141.69-18.35 146.64-18.35L146.64-18.35Q150.74-18.35 153.59-16.85L153.59-16.85Q153.54-18.25 153.17-19.07 152.79-19.9 151.67-20.35 150.54-20.8 148.39-20.8L148.39-20.8 142.69-20.8 142.69-28.3 149.14-28.3ZM148.24-6.05Q150.79-6.05 153.59-8.35L153.59-8.35 153.59-11Q151.19-12.15 148.74-12.15L148.74-12.15Q146.94-12.15 145.94-11.38 144.94-10.6 144.94-9L144.94-9Q144.94-7.35 145.79-6.7 146.64-6.05 148.24-6.05L148.24-6.05ZM185.44-28.9L186.59-28.9 186.59-21.2 185.44-21.2Q181.59-21.2 177.74-18.45L177.74-18.45 177.74 0 169.04 0 169.04-28.3 177.74-28.3 177.74-25.8Q179.59-27.35 181.46-28.13 183.34-28.9 185.44-28.9L185.44-28.9ZM207.99-28.9L209.14-28.9 209.14-21.2 207.99-21.2Q204.14-21.2 200.29-18.45L200.29-18.45 200.29 0 191.59 0 191.59-28.3 200.29-28.3 200.29-25.8Q202.14-27.35 204.01-28.13 205.89-28.9 207.99-28.9L207.99-28.9Z" opacity="1" transform="matrix(1,0,0,1,0,0)" fill="#091627" class="wordmark-text-0" data-fill-palette-color="primary" id="text-0"></path></svg></g></svg></g></svg></g></svg></g><g transform="matrix(1,0,0,1,75.54432,0)"><svg viewBox="0 0 244.43135999999998 96.37206406013034" height="96.37206406013034" width="244.43135999999998"><g><svg xmlns="http://www.w3.org/2000/svg" xmlns:xlink="http://www.w3.org/1999/xlink" version="1.1" x="0" y="0" viewBox="8.032073384665733 32.91459615782493 85.9445672983013 33.885403842175066" enable-background="new 0 0 100 100" xml:space="preserve" height="96.37206406013034" width="244.43135999999998" class="icon-icon-0" data-fill-palette-color="accent" id="icon-0"><path d="M93.9 43.4C93.5 41.9 91.5 41.1 90.3 40.6 88.3 39.8 86.3 39.3 84.2 38.9 79.7 38 75.1 37.5 70.5 37.1 68.3 35.6 65.4 35.4 63.1 36.6 62.6 36.6 62.1 36.5 61.5 36.5 59.1 32.4 53.1 32.1 50.3 36 47.8 31.6 41.2 32 39.2 36.6 33.1 36.9 27 37.4 21 38.3 18.9 38.6 4.6 41 8.8 45.2 9.8 47.1 12.5 48.2 14.4 49.1 17 50.4 19.6 51.7 22 53.2 26.1 55.8 29.7 59.6 29.6 64.7V64.8C29.6 65.7 32.9 66 33.6 66 35.5 66.3 37.4 66.4 39.3 66.5 43.5 66.8 47.6 66.8 51.8 66.8 55.8 66.8 59.8 66.7 63.7 66.4 65.6 66.3 67.6 66.1 69.5 65.7 69.9 65.6 72.3 65.4 72.3 64.7V64.6C72.3 59 76.5 55.2 80.9 52.6 83.2 51.2 85.6 50.1 88 48.9 89.7 48 93 46.7 93.4 44.6 93.9 44.4 94.1 44 93.9 43.4M50.7 37.3C52.8 33.3 59.1 33.2 60.9 37.5L61.2 38.1C60 39.4 59.3 41 59.3 42.9 58.2 42.7 57 42.8 56 43.2 54.9 40.9 52.7 39.3 50.1 39.1 50.2 38.5 50.4 37.9 50.7 37.3 50.9 37 50.4 37.9 50.7 37.3M39.9 37.6C41.3 33.1 47.8 32.7 49.7 37.1 49.7 37.2 49.6 37.3 49.6 37.4 49.4 38 49.2 38.6 49.1 39.2 46.9 39.3 44.9 40.5 43.7 42.3 42.7 41.9 41.6 41.8 40.5 42 39.6 40.6 39.4 39 39.9 37.6M36.6 37.8C37.4 37.8 38.1 37.7 38.9 37.7 38.8 38 38.8 38.3 38.7 38.6 38 38.2 37.3 37.9 36.6 37.8M21.7 48.2C18.1 47.6 14.4 47.1 11.1 45.6 10.3 45.2 8.5 44.4 9.2 43.3 9.7 42.5 10.7 42.1 11.5 41.7 14.5 40.4 17.9 39.8 21.1 39.3 25.2 38.6 29.3 38.2 33.4 37.9 30.6 38.8 28.8 41.5 28.9 44.4 26.3 44.1 23.8 45.8 23.2 48.3 22.7 48.4 22.2 48.3 21.7 48.2M24.3 48.6C25.4 44.1 32.3 44.8 32.4 49.5 29.4 49.2 26.7 48.9 24.3 48.6 24.3 48.6 26.7 48.9 24.3 48.6M33.3 49.2C33.2 47.1 31.8 45.4 29.9 44.7 29.4 40 34.9 36.9 38.6 39.7 38.7 40.6 38.9 41.4 39.3 42.1 36.1 43.1 34.1 46.3 34.6 49.6 34.2 49.5 33.8 49.4 33.3 49.2 33.3 49.2 33.8 49.4 33.3 49.2M46.9 50.1S39.2 49.9 35.7 49.7C35 46.1 37.9 42.7 41.6 42.8 45.3 43 47.9 46.6 46.9 50.1 43 50 46.9 50.1 46.9 50.1M51 50.1H47.9C48.6 47.2 47.2 44 44.5 42.6 47.2 38.9 53 39.5 54.9 43.6 52.6 44.9 51.2 47.5 51.4 50.1zM64 49.8C60.4 50 56.6 50.1 52.5 50.1 52.2 46.9 54.7 43.9 57.9 43.8 61.3 43.7 64.1 46.5 64 49.8 60.4 50 64 49.7 64 49.8M66.4 49.1C65.9 49.1 65.4 49 65 48.9 64.7 46.2 62.8 43.9 60.3 43.1 60.2 40.9 61.4 38.7 63.4 37.6 67.6 35.3 73 38.5 72.6 43.5 69.9 43.8 67.9 46.2 68 48.9 67.4 49 66.9 49.1 66.4 49.1M77.1 48.7C74.6 49 71.9 49.3 69 49.5 68.4 47.1 70.2 44.6 72.7 44.5 75.1 44.3 77.2 46.3 77.1 48.7 74.7 49 77.1 48.6 77.1 48.7M92.9 44C92.6 44.8 91.5 45.3 90.8 45.6 89.5 46.2 88.1 46.6 86.7 46.9 83.9 47.6 81 48.1 78.1 48.5 78.1 45.9 76 43.7 73.5 43.5 73.6 41.6 73 39.7 71.7 38.2 76.1 38.7 80.5 39.1 84.8 40.1 86.6 40.5 88.4 40.9 90.1 41.6 91 41.9 92.5 42.5 92.9 43.4 93 43.6 93 43.8 92.9 44 92.9 44.1 93 43.9 92.9 44" fill="#dad603" data-fill-palette-color="accent"></path></svg></g></svg></g><g></g></svg></g><defs></defs></svg><rect width="395.52" height="224.59066577980008" fill="none" stroke="none" visibility="hidden"></rect></g></svg></g></svg>