           <svg id="sw-js-blob-svg" viewBox="0 0 100 100" xmlns="http://www.w3.org/2000/svg" version="1.1">
                    <defs> 
                        <linearGradient id="sw-gradient" x1="0" x2="1" y1="1" y2="0">
                            <stop id="stop1" stop-color="rgba(0, 108.71, 228.888, 1)" offset="0%"></stop>
                            <stop id="stop2" stop-color="rgba(76.815, 106.734, 144.647, 1)" offset="100%"></stop>
                        </linearGradient>
                    </defs>
                    
                <path fill="url(#sw-gradient)" d="M22.8,-30.5C28.8,-27,32.4,-19.4,35.6,-11.2C38.8,-3,41.6,5.7,39.6,13.2C37.7,20.8,31,27.1,23.6,32.2C16.2,37.3,8.1,41.2,0.2,41C-7.8,40.7,-15.5,36.4,-22.2,31C-28.8,25.7,-34.4,19.3,-37.9,11.6C-41.4,3.8,-42.8,-5.3,-40.1,-12.8C-37.3,-20.2,-30.2,-26.1,-22.8,-29.1C-15.4,-32.1,-7.7,-32.3,0.3,-32.7C8.4,-33.2,16.8,-34,22.8,-30.5Z" width="100%" height="100%" transform="translate(50 50)" stroke-width="0" style="transition: 0.3s;"></path>
              </svg>